<svg viewBox="0 0 800 500" xmlns="http://www.w3.org/2000/svg" role="img" style="--accent:#d97706">
  <title>Nhà máy xi măng</title>
  <desc>Nhà máy xi măng với tháp trao đổi nhiệt nhiều tầng cyclone, lò nung quay nằm nghiêng có ngọn lửa ở đầu ra, máy làm nguội clinker, dãy silo xi măng thành phẩm và băng chuyền từ bãi đá vôi. Dùng minh hoạ ngành xi măng/vật liệu xây dựng. Vẽ thử để kiểm tra prompt mẫu trên 1 ngành CHƯA có trong thư viện gốc.</desc>
  <g class="scene">
    <g class="ground">
      <rect x="0" y="430" width="800" height="70" fill="#cbd5e1"/>
      <rect x="0" y="430" width="800" height="5" fill="#94a3b8"/>
    </g>

    <g class="quarry">
      <path d="M25,430 L45,388 L60,400 L78,372 L95,398 L112,430 Z" fill="#94a3b8" stroke="#0f172a" stroke-width="1.4"/>
      <path d="M45,388 L60,400 L78,372" fill="none" stroke="#64748b" stroke-width="1.2"/>
    </g>

    <g class="conveyor-in">
      <path d="M78,372 L345,300 L345,312 L78,384 Z" fill="#475569" stroke="#0f172a" stroke-width="1.2"/>
      <circle cx="78" cy="378" r="7" fill="#1e293b" stroke="#0f172a" stroke-width="1.2"/>
      <circle cx="345" cy="306" r="7" fill="#1e293b" stroke="#0f172a" stroke-width="1.2"/>
      <line x1="150" y1="359" x2="150" y2="430" stroke="#94a3b8" stroke-width="3"/>
      <line x1="230" y1="341" x2="230" y2="430" stroke="#94a3b8" stroke-width="3"/>
    </g>

    <g class="preheater-tower">
      <rect x="350" y="90" width="35" height="340" fill="#94a3b8" stroke="#0f172a" stroke-width="1.4"/>
      <rect x="385" y="90" width="35" height="340" fill="#64748b" stroke="#0f172a" stroke-width="1.4"/>
      <rect x="350" y="90" width="70" height="14" fill="var(--accent)"/>
      <g class="cyclones" fill="#94a3b8" stroke="#0f172a" stroke-width="1.3">
        <rect x="322" y="140" width="28" height="34"/>
        <rect x="322" y="205" width="28" height="34"/>
        <rect x="322" y="270" width="28" height="34"/>
      </g>
    </g>

    <g class="kiln">
      <path d="M420,345 L650,365 L650,380 L420,360 Z" fill="#94a3b8" stroke="#0f172a" stroke-width="1.4"/>
      <path d="M420,360 L650,380 L650,395 L420,375 Z" fill="#64748b" stroke="#0f172a" stroke-width="1.4"/>
      <line x1="460" y1="349" x2="460" y2="379" stroke="#0f172a" stroke-width="1.6"/>
      <line x1="540" y1="357" x2="540" y2="387" stroke="#0f172a" stroke-width="1.6"/>
      <line x1="610" y1="363" x2="610" y2="393" stroke="#0f172a" stroke-width="1.6"/>
      <g class="piers" fill="#475569" stroke="#0f172a" stroke-width="1.2">
        <path d="M448,430 L472,430 L468,378.5 L452,378.5 Z"/>
        <path d="M528,430 L552,430 L548,385.4 L532,385.4 Z"/>
        <path d="M598,430 L622,430 L618,391.5 L602,391.5 Z"/>
      </g>
      <path d="M655,388 C648,375 660,368 655,355 C670,366 675,382 662,392 C659,389 657,389 655,388 Z" fill="#ea580c"/>
      <path d="M655,383 C651,375 658,371 655,364 C663,371 665,380 658,386 Z" fill="#fbbf24"/>
    </g>

    <g class="cooler">
      <rect x="650" y="375" width="55" height="45" fill="#334155" stroke="#0f172a" stroke-width="1.4"/>
      <rect x="650" y="375" width="55" height="12" fill="#475569"/>
    </g>

    <g class="silos" stroke="#0f172a" stroke-width="1.3">
      <g class="silo">
        <rect x="712" y="240" width="8" height="190" fill="#f8fafc"/>
        <rect x="720" y="240" width="8" height="190" fill="#cbd5e1"/>
        <path d="M712,240 A8,7 0 0 1 728,240 Z" fill="#f8fafc"/>
      </g>
      <g class="silo">
        <rect x="734" y="252" width="8" height="178" fill="#f8fafc"/>
        <rect x="742" y="252" width="8" height="178" fill="#cbd5e1"/>
        <path d="M734,252 A8,7 0 0 1 750,252 Z" fill="#f8fafc"/>
      </g>
      <g class="silo">
        <rect x="756" y="246" width="8" height="184" fill="#f8fafc"/>
        <rect x="764" y="246" width="8" height="184" fill="#cbd5e1"/>
        <path d="M756,246 A8,7 0 0 1 772,246 Z" fill="#f8fafc"/>
      </g>
    </g>
  </g>
</svg>
