<svg xmlns="http://www.w3.org/2000/svg" xmlns:xlink="http://www.w3.org/1999/xlink" version="1.1" baseProfile="full" width="624" height="400" data-theme="light" style="position: absolute; left: 0px; top: 0px; user-select: none;"><rect width="624" height="400" x="0" y="0" fill="var(--paper, #FFFFFF)"></rect><g><path d="M90.2129 350.5L597.8962 350.5" fill="none" stroke="var(--line, #DBE2EA)"></path><path d="M90.2129 301.5L597.8962 301.5" fill="none" stroke="var(--line, #DBE2EA)"></path><path d="M90.2129 253.5L597.8962 253.5" fill="none" stroke="var(--line, #DBE2EA)"></path><path d="M90.2129 205.5L597.8962 205.5" fill="none" stroke="var(--line, #DBE2EA)"></path><path d="M90.2129 156.5L597.8962 156.5" fill="none" stroke="var(--line, #DBE2EA)"></path><path d="M90.2129 108.5L597.8962 108.5" fill="none" stroke="var(--line, #DBE2EA)"></path><path d="M293.2862 235.776L293.2862 201.776" fill="none" stroke="var(--ink-md, #42566A)"></path><path d="M297.2862 235.776A4 4 0 1 1 297.2862 235.7756" fill="var(--ink, #051C2C)" stroke="var(--paper, #FFFFFF)" stroke-width="1.5"></path><text dominant-baseline="central" text-anchor="middle" xml:space="preserve" y="5.5" transform="translate(293.2862 175.776)" fill="var(--ink-md, #42566A)" style="font: 11px Spectral, Georgia, &quot;Times New Roman&quot;, serif;">Đáy chu kỳ, dưới</text><text dominant-baseline="central" text-anchor="middle" xml:space="preserve" y="5.5" transform="translate(293.2862 188.776)" fill="var(--ink-md, #42566A)" style="font: 11px Spectral, Georgia, &quot;Times New Roman&quot;, serif;">điểm hoà vốn</text><path d="M496.3596 123.488L496.3596 157.488" fill="none" stroke="var(--ink-md, #42566A)"></path><path d="M500.3596 123.488A4 4 0 1 1 500.3596 123.4876" fill="var(--ink, #051C2C)" stroke="var(--paper, #FFFFFF)" stroke-width="1.5"></path><text dominant-baseline="central" text-anchor="middle" xml:space="preserve" y="5.5" transform="translate(496.3596 161.488)" fill="var(--ink-md, #42566A)" style="font: 11px Spectral, Georgia, &quot;Times New Roman&quot;, serif;">Kênh đào tắc, vòng</text><text dominant-baseline="central" text-anchor="middle" xml:space="preserve" y="5.5" transform="translate(496.3596 174.488)" fill="var(--ink-md, #42566A)" style="font: 11px Spectral, Georgia, &quot;Times New Roman&quot;, serif;">mũi Hảo Vọng</text><path d="M90.2129 350.5L597.8962 350.5" fill="none" stroke="var(--ink-md, #42566A)" stroke-linecap="round"></path><text dominant-baseline="central" text-anchor="end" xml:space="preserve" transform="translate(82.2129 350)" fill="var(--ink-md, #42566A)" style="font-size: 11px; font-family: &quot;IBM Plex Mono&quot;, Consolas, &quot;Courier New&quot;, monospace;">0,0 đồng</text><text dominant-baseline="central" text-anchor="end" xml:space="preserve" transform="translate(82.2129 301.6)" fill="var(--ink-md, #42566A)" style="font-size: 11px; font-family: &quot;IBM Plex Mono&quot;, Consolas, &quot;Courier New&quot;, monospace;">500,0 tỷ</text><text dominant-baseline="central" text-anchor="end" xml:space="preserve" transform="translate(82.2129 253.2)" fill="var(--ink-md, #42566A)" style="font-size: 11px; font-family: &quot;IBM Plex Mono&quot;, Consolas, &quot;Courier New&quot;, monospace;">1,0 nghìn tỷ</text><text dominant-baseline="central" text-anchor="end" xml:space="preserve" transform="translate(82.2129 204.8)" fill="var(--ink-md, #42566A)" style="font-size: 11px; font-family: &quot;IBM Plex Mono&quot;, Consolas, &quot;Courier New&quot;, monospace;">1,5 nghìn tỷ</text><text dominant-baseline="central" text-anchor="end" xml:space="preserve" transform="translate(82.2129 156.4)" fill="var(--ink-md, #42566A)" style="font-size: 11px; font-family: &quot;IBM Plex Mono&quot;, Consolas, &quot;Courier New&quot;, monospace;">2,0 nghìn tỷ</text><text dominant-baseline="central" text-anchor="end" xml:space="preserve" transform="translate(82.2129 108)" fill="var(--ink-md, #42566A)" style="font-size: 11px; font-family: &quot;IBM Plex Mono&quot;, Consolas, &quot;Courier New&quot;, monospace;">2,5 nghìn tỷ</text><text dominant-baseline="central" text-anchor="middle" y="5.5" transform="translate(90.2129 358)" fill="var(--ink-md, #42566A)" style="font-size: 11px; font-family: &quot;IBM Plex Mono&quot;, Consolas, &quot;Courier New&quot;, monospace;">Q1/2025</text><text dominant-baseline="central" text-anchor="middle" y="5.5" transform="translate(191.7496 358)" fill="var(--ink-md, #42566A)" style="font-size: 11px; font-family: &quot;IBM Plex Mono&quot;, Consolas, &quot;Courier New&quot;, monospace;">Q2/2025</text><text dominant-baseline="central" text-anchor="middle" y="5.5" transform="translate(293.2862 358)" fill="var(--ink-md, #42566A)" style="font-size: 11px; font-family: &quot;IBM Plex Mono&quot;, Consolas, &quot;Courier New&quot;, monospace;">Q3/2025</text><text dominant-baseline="central" text-anchor="middle" y="5.5" transform="translate(394.8229 358)" fill="var(--ink-md, #42566A)" style="font-size: 11px; font-family: &quot;IBM Plex Mono&quot;, Consolas, &quot;Courier New&quot;, monospace;">Q4/2025</text><text dominant-baseline="central" text-anchor="middle" y="5.5" transform="translate(496.3596 358)" fill="var(--ink-md, #42566A)" style="font-size: 11px; font-family: &quot;IBM Plex Mono&quot;, Consolas, &quot;Courier New&quot;, monospace;">Q1/2026</text><text dominant-baseline="central" text-anchor="middle" y="5.5" transform="translate(597.8962 358)" fill="var(--ink-md, #42566A)" style="font-size: 11px; font-family: &quot;IBM Plex Mono&quot;, Consolas, &quot;Courier New&quot;, monospace;">Q2/2026</text><g clip-path="url(#zr0-c0)"><path d="M90.2129 212.544L191.7496 227.548L293.2862 235.776L394.8229 194.152L496.3596 123.488L597.8962 138.492" fill="none" stroke="var(--accent, #2251FF)" stroke-width="2" stroke-linejoin="bevel"></path></g><path d="M1 0A1 1 0 1 1 1 -0.0001" transform="matrix(3,0,0,3,90.2129,212.544)" fill="var(--accent, #2251FF)"></path><path d="M1 0A1 1 0 1 1 1 -0.0001" transform="matrix(3,0,0,3,191.7496,227.548)" fill="var(--accent, #2251FF)"></path><path d="M1 0A1 1 0 1 1 1 -0.0001" transform="matrix(3,0,0,3,293.2862,235.776)" fill="var(--accent, #2251FF)"></path><path d="M1 0A1 1 0 1 1 1 -0.0001" transform="matrix(3,0,0,3,394.8229,194.152)" fill="var(--accent, #2251FF)"></path><path d="M1 0A1 1 0 1 1 1 -0.0001" transform="matrix(3,0,0,3,496.3596,123.488)" fill="var(--accent, #2251FF)"></path><path d="M1 0A1 1 0 1 1 1 -0.0001" transform="matrix(3,0,0,3,597.8962,138.492)" fill="var(--accent, #2251FF)"></path><path d="M-5 -5l313.252 0l0 47l-313.252 0Z" transform="translate(21 13)" fill="rgb(0,0,0)" fill-opacity="0" stroke="#3c3c41" stroke-width="0"></path><text dominant-baseline="central" text-anchor="start" xml:space="preserve" y="7.5" transform="translate(21 13)" fill="var(--ink, #051C2C)" style="font-size: 15px; font-family: Spectral, Georgia, &quot;Times New Roman&quot;, serif; font-weight: bold;">Doanh thu thuần theo quý, có chú thích sự kiện</text><text dominant-baseline="central" text-anchor="start" xml:space="preserve" y="31" transform="translate(21 13)" fill="var(--ink-md, #42566A)" style="font-size: 12px; font-family: Spectral, Georgia, &quot;Times New Roman&quot;, serif;">Đơn vị: điểm, minh hoạ 2025-2026, không phải số thật</text></g><defs><clipPath id="zr0-c0"><path d="M89 107l511 0l0 244l-511 0Z" fill="#000"></path></clipPath></defs></svg>